# xmcd
#
# Track frame offsets:
# 150
# 12394
# 24354
# 43199
# 60445
# 77867
# 91344
# 108053
# 122760
# 137695
# 154660
# 170503
# 189494
#
# Disc length: 2630 seconds
#
#
# Revision: 0
# Processed by: cddbd v1.5.1PL0 Copyright (c) Steve Scherf et al.
# Submitted via: FreeRIP 2.91 
#
DISCID=9d0a440d
DTITLE=Morgan Easter - Jesus Knows Me This I Love
DYEAR=2001
DGENRE=Gospel
TTITLE0=Just Ask
TTITLE1=Love Makes A Friend Be A Friend Like You
TTITLE2=Jesus Knows Me This I Love
TTITLE3=Change A Heart Change The World
TTITLE4=Only Hope
TTITLE5=All God's Children
TTITLE6=Meaning Of Life
TTITLE7=You Are Mine
TTITLE8=Angels To Watch Over You
TTITLE9=Water-Walkin'
TTITLE10=Just Thought You'd Like To Know
TTITLE11=Redeemer
TTITLE12=What A Friend
EXTD=
EXTT0=
EXTT1=
EXTT2=
EXTT3=
EXTT4=
EXTT5=
EXTT6=
EXTT7=
EXTT8=
EXTT9=
EXTT10=
EXTT11=
EXTT12=
PLAYORDER=
